<?xml version="1.0" encoding="iso-8859-1"?>
<!-- Generator: Adobe Illustrator 19.0.0, SVG Export Plug-In . SVG Version: 6.00 Build 0)  -->
<svg version="1.1" id="Capa_1" xmlns="http://www.w3.org/2000/svg" xmlns:xlink="http://www.w3.org/1999/xlink" x="0px" y="0px"
	 viewBox="0 0 514.04 514.04" style="enable-background:new 0 0 514.04 514.04;" xml:space="preserve">
<g>
	<g>
		<path d="M299.997,3.987c-181.76-28.16-337.92,133.12-291.84,317.44c30.72,122.88,151.04,207.36,286.72,189.44
			c48.64-7.68,69.12-66.56,33.28-102.4l-23.04-23.04c-20.48-20.48-25.6-51.2-7.68-74.24c20.48-28.16,61.44-30.72,87.04-7.68
			l20.48,20.48c35.84,35.84,99.84,15.36,107.52-35.84C527.837,147.347,427.997,27.027,299.997,3.987z M64.477,295.827
			c-15.36,0-25.6-10.24-25.6-25.6c0-15.36,10.24-25.6,25.6-25.6s25.6,10.24,25.6,25.6C90.077,283.027,79.837,295.827,64.477,295.827
			z M138.717,423.827c-10.24,10.24-25.6,10.24-35.84,0c-10.24-10.24-10.24-25.6,0-35.84c10.24-10.24,25.6-10.24,35.84,0
			C148.957,395.667,148.957,413.587,138.717,423.827z M138.717,152.467c-10.24,7.68-25.6,7.68-35.84,0
			c-10.24-10.24-10.24-25.6,0-35.84c10.24-12.8,25.6-12.8,35.84-2.56S148.957,142.227,138.717,152.467z M230.877,283.027
			c-28.16,0-51.2-23.04-51.2-51.2c0-28.16,23.04-51.2,51.2-51.2c28.16,0,51.2,23.04,51.2,51.2
			C282.077,259.987,259.037,283.027,230.877,283.027z M256.477,103.827c-15.36,0-25.6-12.8-25.6-25.6c0-15.36,10.24-25.6,25.6-25.6
			s25.6,10.24,25.6,25.6C282.077,91.027,271.837,103.827,256.477,103.827z M410.077,152.467c-10.24,10.24-25.6,10.24-35.84,0
			c-10.24-10.24-10.24-25.6,0-35.84c10.24-12.8,25.6-12.8,35.84-2.56C420.317,124.307,420.317,142.227,410.077,152.467z"/>
	</g>
</g>
<g>
</g>
<g>
</g>
<g>
</g>
<g>
</g>
<g>
</g>
<g>
</g>
<g>
</g>
<g>
</g>
<g>
</g>
<g>
</g>
<g>
</g>
<g>
</g>
<g>
</g>
<g>
</g>
<g>
</g>
</svg>
